<?xml version="1.0" encoding="UTF-8"?><svg id="a" xmlns="http://www.w3.org/2000/svg" viewBox="0 0 1464.01 303.77"><defs><style>.b{fill:#fff;}</style></defs><path class="b" d="M203.98,228.33c-5.07,0-8.46-2.03-12.52-10.15-11.84-23.68-25.37-41.27-32.47-48.03,38.22-35.52,58.18-65.29,58.18-98.78,0-39.92-29.09-68.33-87.27-68.33C57.84,3.04,0,54.12,0,88.63c0,12.18,5.41,19.96,14.55,19.96,2.71,0,5.75-.68,7.78-1.69,11.5-22.66,36.87-47.36,64.95-50.74-12.18,39.92-23.68,73.41-33.49,102.5-14.55,42.62-16.91,56.15-16.91,65.29,0,13.19,12.85,33.15,32.14,33.15,8.46,0,14.21-2.37,16.91-6.09,.68-11.5,5.41-40.25,11.5-64.95,15.56,5.07,24.36,21.31,45.67,67.65,8.46,18.27,14.55,23.34,27.4,23.34,27.74,0,51.42-19.96,51.42-38.56,0-4.06-1.35-9.13-4.06-12.18-4.06,1.02-10.82,2.03-13.87,2.03Zm-69.35-73.07c-4.74-1.35-11.16-2.37-17.59-2.37-4.06,0-7.78,.34-11.16,1.01,10.49-43.3,16.58-77.8,17.25-99.11,29.09,2.03,39.58,16.58,39.58,34.5,0,20.3-6.43,36.87-28.08,65.96ZM284.82,51.76c0-27.4,5.75-37.21,16.58-37.21,13.53,0,28.75,14.88,28.75,25.37,0,8.12-6.43,21.31-22.66,41.27-13.19,0-22.66-9.81-22.66-29.43Zm172.85,31.12c0,105.2-54.8,173.2-97.76,173.2-22.29,0-38.14-11.95-43.04-37.14-18.31,19.92-43.4,38.49-61.14,38.49-19.96,0-26.72-8.79-26.72-27.4,0-14.88,3.72-28.75,12.18-49.73-2.71-6.43-3.38-14.21-3.38-20.97,0-19.96,30.11-55.48,51.08-55.48,15.56,0,16.91,8.46,16.91,21.65,0,8.8-5.75,23-11.84,37.21-9.47,23.34-13.87,34.17-13.87,41.95,0,3.72,1.69,5.07,4.74,5.07,4.01,0,15.56-7.78,32.77-29.7,9.04-41.36,42.45-77.2,65.66-77.2,10.49,0,15.56,5.75,15.56,14.55,0,1.35,0,2.71-.34,4.06-24.69,15.9-35.52,51.76-35.52,75.77,0,11.5,3.38,14.88,10.15,14.88,14.21,0,34.84-52.77,34.84-107.57,0-39.24-21.31-59.2-53.11-61.23-3.04-2.71-4.4-7.1-4.4-11.16,0-15.9,13.53-32.14,43.64-32.14,38.23,0,63.6,31.8,63.6,82.88Zm133.28,83.21c-19.28,29.43-49.05,49.05-72.05,49.05-13.19,0-16.24-8.46-16.24-23.68,46.34-10.49,62.92-32.47,62.92-60.89,0-23.68-12.85-34.84-36.2-34.84-32.81,0-74.42,52.09-74.42,103.17,0,36.53,15.22,57.17,48.37,57.17,43.98,0,100.47-53.79,100.47-78.82,0-5.41-4.74-10.82-12.85-11.16Zm-70.02-34.84c4.06,0,6.77,4.06,6.77,11.16,0,10.15-4.06,20.63-23,24.02,2.37-23.68,11.5-35.18,16.24-35.18Zm275.01-15.56c-8.79,2.71-18.94,4.74-35.52,5.07-4.4,0-9.13-1.02-14.55-1.69,3.72-21.31,6.43-34.5,11.5-49.73,15.22,4.4,32.81,6.09,44.31,6.09,25.37,0,46-14.21,46-35.52,0-4.06-1.69-10.49-4.06-12.85-32.81-.34-58.52-2.71-143.76-17.93-26.05-4.74-36.87-5.41-53.45-5.41-48.37,0-73.74,35.18-73.74,73.07,0,30.44,21.31,55.48,41.95,55.48,18.27,0,27.4-10.82,27.4-23-23.34-13.53-31.12-27.06-31.12-40.59,0-15.9,8.46-24.69,26.72-24.69s42.62,3.72,78.48,15.22c-11.16,19.62-17.25,33.49-21.99,52.77-4.74,.34-8.79,1.02-11.84,2.71-6.43,3.38-9.13,9.13-9.13,14.88,0,6.77,3.38,13.87,9.13,18.6-80.17,53.45-96.07,81.86-96.07,107.23,0,29.43,17.93,48.37,51.76,48.37,48.03,0,78.14-43.98,91.67-104.19,1.01-4.74,8.46-34.84,9.47-40.59,0,0,13.87,3.04,23,3.04,23,0,39.92-10.82,39.92-33.15,0-4.74-3.04-10.82-6.09-13.19Zm-154.25,153.91c-7.44,0-12.52-5.07-12.52-18.94,0-12.52,9.81-30.45,48.71-66.64-10.49,57.84-23.68,85.58-36.2,85.58ZM855.13,51.76c0-27.4,5.75-37.21,16.58-37.21,13.53,0,28.75,14.88,28.75,25.37,0,8.12-6.43,21.31-22.66,41.27-13.19,0-22.66-9.81-22.66-29.43Zm332.85,31.12c0,105.2-54.8,173.2-97.76,173.2-22.63,0-38.63-12.31-43.26-38.3-19.35,20.35-46.22,39.65-64.3,39.65-19.96,0-26.72-8.79-26.72-27.4,0-22.33,17.25-56.49,17.25-63.93,0-2.71-1.35-4.06-4.06-4.06-3.04,0-14.21,5.07-27.4,23.34-4.74,26.05-6.77,41.27-7.78,64.27-3.38,3.38-5.75,4.4-13.53,4.4-18.05,0-31.48-16.27-33-35.36-18.33,20.01-43.56,38.74-61.37,38.74-19.96,0-26.72-8.79-26.72-27.4,0-14.88,3.72-28.75,12.18-49.73-2.71-6.43-3.38-14.21-3.38-20.97,0-19.96,30.11-55.48,51.08-55.48,15.56,0,16.91,8.46,16.91,21.65,0,8.8-5.75,23-11.84,37.21-9.47,23.34-13.87,34.17-13.87,41.95,0,3.72,1.69,5.07,4.74,5.07,4.52,0,18.62-9.89,39.63-38.79-1.91-5.86-2.42-12.5-2.42-18.38,0-19.96,30.11-55.48,51.08-55.48,11.5,0,14.54,4.06,14.54,14.21,0,8.46-4.4,32.14-13.53,48.71,24.69-42.62,48.03-57.84,62.92-57.84s23.34,10.15,23.34,23.34c0,9.13-2.71,20.97-9.81,37.21-6.09,14.88-16.91,38.9-16.91,47.36,0,3.72,1.69,5.07,4.74,5.07,5.67,0,21.57-12.13,38.92-33.8,8.61-41.91,42.48-78.51,65.94-78.51,10.49,0,15.56,5.75,15.56,14.55,0,1.35,0,2.71-.34,4.06-24.69,15.9-35.52,51.76-35.52,75.77,0,11.5,3.38,14.88,10.15,14.88,14.21,0,34.84-52.77,34.84-107.57,0-39.24-21.31-59.2-53.11-61.23-3.04-2.71-4.4-7.1-4.4-11.16,0-15.9,13.53-32.14,43.64-32.14,38.22,0,63.59,31.8,63.59,82.88Zm261.82,84.91c-17.93,28.08-41.61,49.05-51.08,49.05-4.4,0-5.75-3.38-5.75-8.12,0-8.46,6.77-25.03,14.55-40.59,5.41-10.82,9.13-18.94,9.13-25.71,0-8.12-4.06-12.85-24.02-18.6-5.75-1.69-12.18-4.06-15.9-6.09,4.4-7.44,11.5-12.52,19.62-16.91,.68-2.03,1.01-4.4,1.01-6.77,0-9.13-7.78-14.55-19.28-14.55-18.94,0-54.46,33.49-54.46,57.17,0,6.43,2.37,10.82,5.07,13.87-3.75,9.03-7.78,15.77-12.57,22.83-19.16,25.34-45.87,41.78-66.92,41.78-13.19,0-16.24-8.46-16.24-23.68,46.34-10.49,62.92-32.47,62.92-60.89,0-23.68-12.85-34.84-36.2-34.84-32.81,0-74.42,52.09-74.42,103.17,0,36.53,15.22,57.17,48.37,57.17s74.21-31.18,91.75-57.11c7.97-10.02,14.59-20.74,22.92-36.59,7.44,3.04,11.16,5.07,11.16,9.13,0,8.79-16.58,37.55-16.58,59.87,0,19.28,11.5,28.42,32.14,28.42,31.12,0,88.96-60.21,88.96-81.52,0-5.07-5.75-10.49-14.21-10.49Zm-198.56-36.53c4.06,0,6.77,4.06,6.77,11.16,0,10.15-4.06,20.63-23,24.02,2.37-23.68,11.5-35.18,16.24-35.18Z"/></svg>